<?xml version="1.0" encoding="UTF-8"?>
<svg width="56px" height="56px" viewBox="0 0 56 56" version="1.1" xmlns="http://www.w3.org/2000/svg" xmlns:xlink="http://www.w3.org/1999/xlink">
    <!-- Generator: Sketch 56.2 (81672) - https://sketch.com -->
    <title>restaurant-reviews-logo</title>
    <desc>Created with Sketch.</desc>
    <g id="Page-1" stroke="none" stroke-width="1" fill="none" fill-rule="evenodd">
        <g id="restaurant-reviews-logo" fill="#FFFFFF" fill-rule="nonzero">
            <path d="M37.671,5.99998358 C36.5784207,5.9959105 35.6317246,6.7562688 35.4,7.824 C34.4712037,12.0020068 34.0017506,16.269 34,20.549 L34,30 L36.379,30 C36.6573629,29.9992572 36.9234382,30.1145746 37.1132222,30.3182128 C37.3030061,30.521851 37.3993216,30.7953789 37.379,31.073 L36.211,46.978 C36.1773584,47.5007887 36.3610617,48.0142703 36.7186899,48.3970783 C37.0763181,48.7798862 37.5761336,48.9980484 38.1,49 C39.149341,49 40,48.149341 40,47.1 L40,8.329 C39.9983472,7.04341404 38.956586,6.00165278 37.671,5.99998358 Z" id="Path"></path>
            <path d="M16.84,21.628 C15.608494,20.7253255 14.714376,19.4365989 14.3,17.967 C8.89989515,25.2955788 10.2603779,35.5822422 17.38,41.255 L17.918,24.038 C17.9765953,23.1063184 17.5735839,22.2053376 16.84,21.628 L16.84,21.628 Z" id="Path"></path>
            <path d="M32,31 L32,20.549 C32.0070153,17.5768249 32.2322878,14.6091775 32.674,11.67 C31.155269,11.2298195 29.5812187,11.0099105 28,11.0168339 L28,16 C27.9972757,17.5141481 27.5063095,18.9870469 26.6,20.2 C26.1919244,20.7437682 25.7064439,21.2248689 25.159,21.628 C24.4263213,22.20472 24.0234122,23.104351 24.081,24.035 L24.906,44.685 C28.1116645,45.3257393 31.436047,44.9849021 34.445,43.707 L35.3,32 L33,32 C32.4477153,32 32,31.5522847 32,31 Z" id="Path"></path>
            <path d="M42,37.613 C46.0004685,31.8286344 46.0004685,24.1713656 42,18.387 L42,37.613 Z" id="Path"></path>
            <path d="M28,0 C12.536027,0 -1.77635684e-15,12.536027 -1.77635684e-15,28 C-1.77635684e-15,43.463973 12.536027,56 28,56 C43.463973,56 56,43.463973 56,28 C55.9823655,12.5433374 43.4566626,0.0176345439 28,0 Z M22,4 L24,4 L24,15 L22,15 L22,4 Z M18,4 L20,4 L20,15 L18,15 L18,4 Z M9.975,9.279 L11.361,10.721 C10.802,11.26 10.261,11.831 9.761,12.421 L8.241,11.121 C8.784,10.482 9.368,9.864 9.975,9.279 Z M4.075,26.079 L2.081,25.921 C2.45338113,21.2704884 4.07365784,16.8066088 6.771,13 L8.4,14.158 C5.91220972,17.6701728 4.41835676,21.7886329 4.076,26.079 L4.075,26.079 Z M42,40.814 L42,47.1 C42.0280282,48.5433102 41.2565063,49.8840489 39.9945484,50.5850425 C38.7325904,51.2860362 37.1866371,51.232611 35.9760819,50.4461721 C34.7655268,49.6597331 34.0884017,48.2689321 34.216,46.831 L34.283,45.911 C31.3060582,46.9733564 28.1079593,47.2617153 24.989,46.749 L24.997,46.958 C25.0541608,48.3866866 24.3249368,49.7321085 23.0966826,50.4640951 C21.8684284,51.1960816 20.3380931,51.1972597 19.1087133,50.4671651 C17.8793335,49.7370705 17.1480389,48.3927729 17.203,46.964 L17.303,43.674 C12.7460762,40.5809558 9.761468,35.6572988 9.12715895,30.1864553 C8.49284991,24.7156118 10.2716909,19.2396635 14,15.186 L14,4 L16,4 L16,16 C16.0001169,17.5850705 16.7518035,19.0762001 18.026,20.019 C19.2903273,20.9845988 19.9976878,22.5111658 19.917,24.1 L19.2,47.033 C19.1806959,47.5490351 19.3732678,48.0505171 19.733,48.421 C20.4908299,49.1671457 21.7071701,49.1671457 22.465,48.421 C22.825399,48.0520293 23.0187689,47.5514362 23,47.036 L22.084,24.109 C22.0007578,22.5173677 22.7078998,20.9870975 23.974,20.019 C25.248951,19.0768362 26.0008432,17.5852987 26,16 L26,4 L28,4 L28,9.019 C29.6891178,9.01280176 31.3712212,9.23652151 33,9.684 C33.14,8.918 33.276,8.151 33.444,7.391 C33.920849,5.23334811 35.9462105,3.78115576 38.1427663,4.02196564 C40.339322,4.26277552 42.0019484,6.11928444 42,8.329 L42,15.186 C48.6665994,22.4280322 48.6665994,33.5719678 42,40.814 L42,40.814 Z" id="Shape"></path>
        </g>
    </g>
</svg>